<svg xmlns="http://www.w3.org/2000/svg" xmlns:xlink="http://www.w3.org/1999/xlink" width="344" height="217" viewBox="0 0 344 217">
  <defs>
    <clipPath id="clip-path">
      <rect id="Rectangle_58903" data-name="Rectangle 58903" width="344" height="217" transform="translate(-17588 -19227)" fill="#fff"/>
    </clipPath>
    <clipPath id="clip-path-2">
      <rect id="Rectangle_44786" data-name="Rectangle 44786" width="210.403" height="183.121" fill="#a2e67a"/>
    </clipPath>
  </defs>
  <g id="dynamic-world" transform="translate(17588 19227)" clip-path="url(#clip-path)">
    <g id="Group_124508" data-name="Group 124508" transform="translate(-1375 -1264)">
      <path id="Path_9699" data-name="Path 9699" d="M286.421,92.4c-.562-1.433-1.161-2.846-1.78-4.244A108.14,108.14,0,0,0,77.865,138.172q.13,2.293.354,4.589a109.363,109.363,0,0,0,2.495,14.792c.833,3.446,1.833,6.806,2.972,10.088,1,2.888,2.13,5.7,3.351,8.451a108.141,108.141,0,0,0,206.777-50.015c-.173-3.007-.451-6.024-.88-9.05-.489-3.439-1.136-6.885-1.969-10.331a108.706,108.706,0,0,0-4.543-14.3" transform="translate(-16225.189 -17986.482)" fill="#d6ffbe"/>
      <path id="Path_9700" data-name="Path 9700" d="M187.494,39.16c11.9,7.267,17.072,20.5,11.543,29.558s-19.662,10.508-31.565,3.241S150.4,51.46,155.929,42.4s19.661-10.51,31.565-3.243" transform="translate(-16189.921 -17981.568)" fill="#bbf29b"/>
      <path id="Path_9701" data-name="Path 9701" d="M131.751,147.216c7.113,4.342,10.2,12.252,6.9,17.664s-11.749,6.28-18.864,1.937-10.2-12.25-6.9-17.662,11.751-6.282,18.864-1.938" transform="translate(-16209.475 -17930.574)" fill="#a4e081"/>
      <path id="Path_9702" data-name="Path 9702" d="M145.193,147.257c3.991,2.436,5.723,6.872,3.871,9.908s-6.591,3.522-10.583,1.086-5.723-6.872-3.868-9.908,6.591-3.522,10.58-1.086" transform="translate(-16199.126 -17929.992)" fill="#a4e081"/>
      <path id="Path_9703" data-name="Path 9703" d="M129.767,138.494c2.082,1.271,2.985,3.585,2.019,5.169s-3.439,1.837-5.52.567-2.986-3.585-2.019-5.169,3.439-1.837,5.52-.567" transform="translate(-16203.77 -17933.715)" fill="#a4e081"/>
      <path id="Path_9704" data-name="Path 9704" d="M205.094,61.555c5.121,3.125,7.345,8.819,4.966,12.716s-8.459,4.521-13.579,1.4-7.345-8.819-4.966-12.716,8.459-4.521,13.579-1.4" transform="translate(-16172.825 -17969.957)" fill="#bbf29b"/>
      <path id="Path_9705" data-name="Path 9705" d="M117.791,74.551c-4.1,6.712-11.559,9.625-16.665,6.509S95.2,69.974,99.3,63.262s11.559-9.625,16.665-6.509,5.926,11.086,1.828,17.8" transform="translate(-16216.375 -17971.84)" fill="#bbf29b"/>
      <path id="Path_9706" data-name="Path 9706" d="M94.58,82.5c-2.048,3.357-5.78,4.813-8.333,3.254s-2.963-5.542-.913-8.9,5.778-4.812,8.333-3.254,2.963,5.544.913,8.9" transform="translate(-16222.248 -17963.734)" fill="#a4e081"/>
      <path id="Path_9707" data-name="Path 9707" d="M93.567,92.4c-1.23,2.014-3.468,2.888-5,1.953s-1.779-3.326-.549-5.34,3.47-2.888,5-1.953,1.779,3.326.549,5.34" transform="translate(-16220.761 -17957.375)" fill="#a4e081"/>
      <path id="Path_9708" data-name="Path 9708" d="M113.239,91.022c-2.692,4.411-7.6,6.326-10.952,4.278s-3.894-7.286-1.2-11.7,7.6-6.326,10.952-4.276,3.894,7.284,1.2,11.7" transform="translate(-16215.131 -17961.17)" fill="#a4e081"/>
      <path id="Path_9709" data-name="Path 9709" d="M180.912,85.2c7.236,4.418,10.378,12.461,7.017,17.967s-11.952,6.389-19.188,1.972-10.378-12.462-7.017-17.968,11.952-6.389,19.188-1.97" transform="translate(-16186.828 -17959.367)" fill="#bbf29b"/>
      <g id="Group_111908" data-name="Group 111908" transform="translate(-16211.5 -17907.297)" opacity="0.5">
        <g id="Group_111907" data-name="Group 111907" transform="translate(64 -22)">
          <g id="Group_111906" data-name="Group 111906" clip-path="url(#clip-path-2)">
            <path id="Path_9710" data-name="Path 9710" d="M111.308,125.8c-1.221-2.754-2.353-5.564-3.352-8.451-1.137-3.282-2.139-6.643-2.972-10.088a108.937,108.937,0,0,1-2.493-14.792c-.154-1.533-.268-3.063-.356-4.589a107.556,107.556,0,0,1,5.721-41.229,108.255,108.255,0,0,0-29.991,80.987c.088,1.527.2,3.057.356,4.589a109.163,109.163,0,0,0,2.492,14.792c.834,3.445,1.836,6.806,2.972,10.088,1,2.888,2.131,5.7,3.354,8.451a108.128,108.128,0,0,0,201.054-8.786A108.138,108.138,0,0,1,111.308,125.8" transform="translate(-77.69 -46.65)" fill="#a2e67a"/>
          </g>
        </g>
      </g>
      <path id="Path_9711" data-name="Path 9711" d="M309.573,69.905c.619,1.4,1.218,2.811,1.78,4.244,26.446-3.008,43.335-2.459,44.5,2.37,1.159,4.8-13.4,12.926-37.992,22.256-25.666,9.737-62.251,20.782-103.317,30.715s-78.655,16.831-105.931,19.9c-26.135,2.94-42.8,2.364-43.963-2.433-1.168-4.829,13.6-13.036,38.5-22.446q-.226-2.3-.353-4.589c-49.257,16.233-80.68,31.209-78.767,39.122s36.709,6.87,87.938-1.2c30.185-4.756,66.071-11.953,104.308-21.2s73.445-19.249,102.469-28.814C368,91.592,399.424,76.616,397.51,68.7s-36.708-6.87-87.937,1.2" transform="translate(-16250.121 -17968.232)" fill="#f3f3e9"/>
    </g>
  </g>
</svg>
