<svg id="bulb" xmlns="http://www.w3.org/2000/svg" xmlns:xlink="http://www.w3.org/1999/xlink" width="169.283" height="254.132" viewBox="0 0 169.283 254.132">
  <defs>
    <clipPath id="clip-path">
      <rect id="Rectangle_44782" data-name="Rectangle 44782" width="169.283" height="254.132" fill="none"/>
    </clipPath>
    <clipPath id="clip-path-2">
      <rect id="Rectangle_44781" data-name="Rectangle 44781" width="169.283" height="276.132" fill="none"/>
    </clipPath>
    <clipPath id="clip-path-3">
      <rect id="Rectangle_44770" data-name="Rectangle 44770" width="168.798" height="222.13" fill="none"/>
    </clipPath>
    <clipPath id="clip-path-4">
      <rect id="Rectangle_44771" data-name="Rectangle 44771" width="166.935" height="149.657" fill="none"/>
    </clipPath>
    <clipPath id="clip-path-5">
      <rect id="Rectangle_44772" data-name="Rectangle 44772" width="52.595" height="47.481" fill="#3d8363"/>
    </clipPath>
    <clipPath id="clip-path-6">
      <rect id="Rectangle_44773" data-name="Rectangle 44773" width="20.839" height="25.052" fill="#3d8363"/>
    </clipPath>
    <clipPath id="clip-path-7">
      <rect id="Rectangle_44774" data-name="Rectangle 44774" width="106.69" height="137.907" fill="none"/>
    </clipPath>
    <clipPath id="clip-path-8">
      <rect id="Rectangle_44775" data-name="Rectangle 44775" width="29.059" height="5.659" fill="#154d33"/>
    </clipPath>
  </defs>
  <g id="Group_111899" data-name="Group 111899" clip-path="url(#clip-path)">
    <g id="Group_111898" data-name="Group 111898">
      <g id="Group_111897" data-name="Group 111897" clip-path="url(#clip-path-2)">
        <path id="Path_9671" data-name="Path 9671" d="M162.721,49.368C138.693,2.289,96.011-.089,84.531.169c-11.482-.258-54.162,2.12-78.19,49.2,0,0-13.97,32.554,0,59.7S49,173.7,50.892,190.445s2.394,31.839,2.394,31.839h62.489s.5-15.095,2.394-31.839,30.582-54.237,44.551-81.379,0-59.7,0-59.7" transform="translate(0.111 0.129)" fill="#17995d"/>
        <path id="Path_9672" data-name="Path 9672" d="M116.162,222.7H53.122l-.009-.274c-.006-.151-.527-15.277-2.392-31.817-1.175-10.421-12.669-28.725-24.84-48.105C18.774,131.184,11.427,119.483,6.2,109.326c-13.872-26.95-.149-59.613-.009-59.939C30.129,2.477,72.3-.26,84.648.016a85.91,85.91,0,0,1,33.208,6.293c15.276,6.138,32.737,18.583,45.228,43.061l.007.017c.142.326,13.863,32.989-.007,59.939-5.228,10.158-12.577,21.859-19.684,33.175-12.17,19.38-23.665,37.686-24.84,48.107-1.864,16.54-2.385,31.666-2.39,31.817Zm-62.491-.569h61.94c.081-2.129.656-16.249,2.385-31.587,1.19-10.55,12.719-28.908,24.925-48.345,7.1-11.307,14.441-23,19.658-33.134,13.671-26.562.28-58.773,0-59.445C138.792,3.031,96.916.307,84.648.585,72.364.3,30.484,3.033,6.705,49.628c-.133.308-13.747,32.729,0,59.436C11.92,119.2,19.262,130.893,26.363,142.2c12.205,19.437,23.733,37.795,24.923,48.345,1.729,15.338,2.3,29.458,2.385,31.587" transform="translate(0 0)" fill="#177928"/>
        <g id="Group_111866" data-name="Group 111866" transform="translate(0.243 0.284)" style="mix-blend-mode: multiply;isolation: isolate">
          <g id="Group_111865" data-name="Group 111865">
            <g id="Group_111864" data-name="Group 111864" clip-path="url(#clip-path-3)">
              <path id="Path_9673" data-name="Path 9673" d="M162.721,49.368C138.693,2.289,96.011-.089,84.531.169c-11.482-.258-54.162,2.12-78.19,49.2,0,0-13.97,32.554,0,59.7S49,173.7,50.892,190.445s2.394,31.839,2.394,31.839h62.489s.5-15.095,2.394-31.839,30.582-54.237,44.551-81.379,0-59.7,0-59.7M151.1,84.712a57.493,57.493,0,0,1-5.81,16.222,51.141,51.141,0,0,1-10.752,13.644,53.231,53.231,0,0,1-15.907,9.749,80.657,80.657,0,0,1-20.781,4.7,129.576,129.576,0,0,1-23.267.549,109.884,109.884,0,0,1-23.2-3.954,76.907,76.907,0,0,1-20.711-9.244,54.788,54.788,0,0,1-15.66-15.209A48.92,48.92,0,0,1,6.964,79.263a57.131,57.131,0,0,1,2.9-24.374A71.6,71.6,0,0,1,22.1,32.856,69.937,69.937,0,0,1,41.134,16.367,55.422,55.422,0,0,1,63.061,8.992a80.519,80.519,0,0,1,26.05-2.138,120.153,120.153,0,0,1,14.528,1.886,57.709,57.709,0,0,1,9.379,2.635,56.521,56.521,0,0,1,15.82,9.108,60.708,60.708,0,0,1,11.99,13.248,67.439,67.439,0,0,1,7.847,16.014,70.213,70.213,0,0,1,3.5,17.441A65.989,65.989,0,0,1,151.1,84.712" transform="translate(-0.131 -0.154)" fill="#fbe2a8"/>
            </g>
          </g>
        </g>
        <g id="Group_111869" data-name="Group 111869" transform="translate(0.244 72.757)" style="mix-blend-mode: multiply;isolation: isolate">
          <g id="Group_111868" data-name="Group 111868">
            <g id="Group_111867" data-name="Group 111867" clip-path="url(#clip-path-4)">
              <path id="Path_9674" data-name="Path 9674" d="M166.076,66.712a85.432,85.432,0,0,1-14.408,22.549,93.147,93.147,0,0,1-20.433,17.255A97.069,97.069,0,0,1,106.4,117.542a94.919,94.919,0,0,1-27.228,3.637,77.545,77.545,0,0,1-29.186-5.906A75.467,75.467,0,0,1,25.622,98.7,84.875,84.875,0,0,1,8.111,71.857,103.508,103.508,0,0,1,.7,40.378c-.024-.289-.042-.578-.066-.869C-.572,50.449.06,63.745,6.341,75.948,20.311,103.09,49,140.583,50.892,157.328s2.394,31.839,2.394,31.839h62.489s.5-15.095,2.392-31.839,30.584-54.237,44.553-81.379A53.77,53.77,0,0,0,167.068,64.3c-.32.807-.648,1.611-.993,2.409" transform="translate(-0.132 -39.511)" fill="#fbe2a8"/>
            </g>
          </g>
        </g>
        <g id="Group_111872" data-name="Group 111872" transform="translate(37.577 12.743)" style="mix-blend-mode: screen;isolation: isolate">
          <g id="Group_111871" data-name="Group 111871">
            <g id="Group_111870" data-name="Group 111870" clip-path="url(#clip-path-5)">
              <path id="Path_9675" data-name="Path 9675" d="M72.616,23.518c-1.794-8.629-9.625-16.969-18.8-16.365A24.5,24.5,0,0,0,41.762,8.67,37.711,37.711,0,0,0,27.7,17.686c-4.125,4.235-7.5,9.931-7.289,16.019.2,5.946,3.718,11.426,8.152,15.205A22.967,22.967,0,0,0,43.751,54.4,29.568,29.568,0,0,0,58.77,49.562c8.508-5.375,16.038-15.494,13.846-26.044" transform="translate(-20.406 -6.92)" fill="#3d8363"/>
            </g>
          </g>
        </g>
        <g id="Group_111875" data-name="Group 111875" transform="translate(17.868 49.437)" style="mix-blend-mode: screen;isolation: isolate">
          <g id="Group_111874" data-name="Group 111874">
            <g id="Group_111873" data-name="Group 111873" clip-path="url(#clip-path-6)">
              <path id="Path_9676" data-name="Path 9676" d="M30.021,35.648c-1.011-3.9-3.4-7.917-7.668-8.673A9.113,9.113,0,0,0,16.342,28c-.142.046-.287.085-.427.14a8.991,8.991,0,0,0-4.471,4.221,15.751,15.751,0,0,0-.529,13.261,10.437,10.437,0,0,0,4.208,5.011,10.354,10.354,0,0,0,7.554.954c6.946-1.711,8.948-9.749,7.344-15.934" transform="translate(-9.703 -26.846)" fill="#3d8363"/>
            </g>
          </g>
        </g>
        <g id="Group_111878" data-name="Group 111878" transform="translate(31.947 86.852)" style="mix-blend-mode: screen;isolation: isolate">
          <g id="Group_111877" data-name="Group 111877">
            <g id="Group_111876" data-name="Group 111876" clip-path="url(#clip-path-7)">
              <path id="Path_9677" data-name="Path 9677" d="M122.577,51.193a6.85,6.85,0,0,0-4.165-3.2,7.545,7.545,0,0,0-4.9.8,22.021,22.021,0,0,0-7.828,7.364,57.121,57.121,0,0,0-6.162,12.261,107.114,107.114,0,0,0-4.094,13.909c-.715,3.1-1.354,6.23-1.948,9.362a13.285,13.285,0,0,1-4.832-.875c-4.889-1.851-7.889-6.307-9.97-11.053a64.19,64.19,0,0,0,.521-7.475c.053-2.469.116-4.941.077-7.41a54.8,54.8,0,0,0-.854-9.694c-.5-2.527-1.295-5.458-3.363-7.173a4.919,4.919,0,0,0-1.423-.8,1.258,1.258,0,0,0-1.326.6c-1.72,3.127-1.777,6.882-1.477,10.351a64.272,64.272,0,0,0,2.322,11.8,80.046,80.046,0,0,0,3.565,10.655c-.807,5.322-3,12.089-9.213,12.377-3.171.147-5.716-1.969-7.559-4.339-.354-.455-.683-.924-1-1.4-.122-2.6-.355-5.195-.668-7.773-.51-4.2-1.131-8.434-1.943-12.588-.665-3.4-1.554-7.4-3.976-10.034a5.839,5.839,0,0,0-3.963-2,1.378,1.378,0,0,0-1.274.893c-1.175,3.889-.394,8.123.729,11.929a86.491,86.491,0,0,0,4.677,11.7A69.013,69.013,0,0,0,56.91,87.9a53.7,53.7,0,0,1-2.217,19.577c-1.131,3.436-3.027,7.686-6.786,8.874-.079.024-.158.039-.239.061-1.074-4.473-2.226-8.924-3.584-13.323-1.943-6.294-4.175-12.495-6.532-18.643-1.017-2.652-2.074-5.287-3.072-7.944-.823-2.186-1.644-4.372-2.606-6.5-1.766-3.917-4.151-8.34-8.117-10.414-1.862-.974-4.009-.972-5.294.919-1.145,1.687-1.155,4.049-1.094,6.007a58.582,58.582,0,0,0,1.1,8.915,136.732,136.732,0,0,0,4.2,16.583,63.124,63.124,0,0,0,2.663,6.532,60.421,60.421,0,0,0,6.817,12.226c2.7,3.523,6.278,6.646,10.752,7.513a11.377,11.377,0,0,0,2.867.192c1.258,5.053,2.412,10.132,3.519,15.214a269.763,269.763,0,0,1,5.817,36.784q.34,4.417.425,8.847c.011.635,1.009.289,1.017-.215a198.372,198.372,0,0,0-3.67-38.38c-1.164-6.314-2.508-12.6-3.941-18.853q-.436-1.909-.884-3.812a8.658,8.658,0,0,0,1.188-.462,12.12,12.12,0,0,0,4.655-4.241c2.963-4.39,4.134-10.047,4.734-15.218a62.615,62.615,0,0,0,.394-7.383,10.935,10.935,0,0,0,5.775,3.738A10.168,10.168,0,0,0,74.111,91.3a17.52,17.52,0,0,0,3.909-8.033,23.855,23.855,0,0,0,4.738,6.245,15,15,0,0,0,10.382,3.943c-1.182,6.445-2.158,12.933-3.055,19.409-1.549,11.17-2.79,22.38-4.291,33.556-.751,5.587-1.256,11.183-1.611,16.811-.319,5.044-.683,10.084-.777,15.137-.031,1.742.055,3.865-.718,5.48-.667,1.392,1.313,1.63,1.838.534a14.078,14.078,0,0,0,1.1-5.525c.094-2.026.063-4.051.2-6.077.359-5.383.615-10.773,1.051-16.15.44-5.447,1.214-10.846,1.906-16.264.689-5.383,1.337-10.769,2-16.152,1.276-10.349,2.7-20.669,4.519-30.935a21.823,21.823,0,0,0,9.71-4.3,46.482,46.482,0,0,0,8.883-9.121,64.289,64.289,0,0,0,5.453-8.379,40.037,40.037,0,0,0,4.226-10.622c.685-3.208.821-6.782-.993-9.662M36.714,112.519c-3.254-3.057-5.556-7.092-7.522-11.054-.945-1.9-1.81-3.847-2.657-5.8-.427-.983-.889-1.959-1.25-2.97a117.951,117.951,0,0,1-3.858-14.038c-.667-3-1.25-6.018-1.615-9.066a24.618,24.618,0,0,1-.064-6.979c.007-.044.011-.068.013-.087a.272.272,0,0,0,.011-.042c.026-.109.052-.217.081-.324a6.12,6.12,0,0,1,.193-.589c.029-.072.061-.144.092-.215l.041-.066c.042-.063.087-.129.123-.2l.007-.018.007,0a.576.576,0,0,0,.116-.116l.006,0,0-.007.02-.015a.29.29,0,0,1,.083-.022l.015-.011h0l-.013.009.007,0a1,1,0,0,0,.1-.007c.046,0,.09,0,.136,0s.127.015.18.022a4.365,4.365,0,0,1,.438.112c.094.031.186.066.278.1.048.018.1.041.144.061l.033.013.041.02A10.393,10.393,0,0,1,23.9,62.561a18.409,18.409,0,0,1,3.979,5.071c2.248,3.935,3.652,8.272,5.291,12.478,2.278,5.843,4.526,11.7,6.572,17.63,2.147,6.226,3.957,12.559,5.583,18.942-3.2-.118-6.375-2.062-8.611-4.164M55.158,80.151c-1.545-3.368-3.1-6.738-4.357-10.229-1.32-3.677-2.493-7.674-2.21-11.624a12.533,12.533,0,0,1,.184-1.414c2.469.869,3.736,4.14,4.455,6.39a63.666,63.666,0,0,1,1.941,9.5c.532,3.388,1.028,6.828,1.37,10.285-.481-.961-.937-1.935-1.383-2.908M73.7,63.7a36.178,36.178,0,0,1-.967-11.187,12.755,12.755,0,0,1,.707-3.182c1.482,1.07,2.223,3.189,2.679,4.85a39.988,39.988,0,0,1,1.19,8.931c.107,2.58.077,5.162.024,7.742-.035,1.683-.074,3.364-.164,5.044-.239-.685-.468-1.366-.681-2.029A102.366,102.366,0,0,1,73.7,63.7m46.6,1.58a56.9,56.9,0,0,1-10.937,17.514c-3.622,4.02-8.425,7.847-13.741,8.716,1.563-8.58,3.436-17.177,6.771-25.26a45.7,45.7,0,0,1,5.926-10.791,22.057,22.057,0,0,1,3.536-3.654,8.863,8.863,0,0,1,4.075-2.057c3.247-.481,5.423,2.875,5.924,5.67.593,3.3-.389,6.791-1.554,9.861" transform="translate(-17.348 -47.164)" fill="#a2e67a"/>
              <path id="Path_9678" data-name="Path 9678" d="M19.14,54.627l-.007,0a.642.642,0,0,1-.107.044c-.009.026.035.028.114-.046" transform="translate(-15.938 -40.884)" fill="#fae5c4"/>
            </g>
          </g>
        </g>
        <path id="Path_9679" data-name="Path 9679" d="M76.4,138.041H34.636s-1.51,20.389,19.131,21.647h3.5C77.906,158.43,76.4,138.041,76.4,138.041" transform="translate(29.125 116.161)" fill="#4d5052"/>
        <path id="Path_9680" data-name="Path 9680" d="M53.9,160.1c-6.224-.379-11.067-2.512-14.412-6.342-5.613-6.425-5.009-15.52-5-15.61l.018-.263H76.789l.018.263c.007.09.611,9.185-5,15.61-3.346,3.83-8.187,5.963-14.395,6.342ZM35.036,138.455c-.052,1.521-.048,9.3,4.878,14.934,3.241,3.709,7.95,5.775,14,6.143h3.482c6.029-.368,10.738-2.434,13.979-6.143,4.928-5.637,4.93-13.413,4.88-14.934Z" transform="translate(28.998 116.03)" fill="#636568"/>
        <path id="Path_9681" data-name="Path 9681" d="M94.314,120.405H31.12a5.065,5.065,0,1,1,0-10.13H94.314a5.065,5.065,0,1,1,0,10.13" transform="translate(21.924 92.796)" fill="#17995d"/>
        <path id="Path_9682" data-name="Path 9682" d="M94.444,120.82H31.25a5.35,5.35,0,1,1,0-10.7H94.444a5.35,5.35,0,1,1,0,10.7M31.25,110.69a4.781,4.781,0,1,0,0,9.561H94.444a4.781,4.781,0,1,0,0-9.561Z" transform="translate(21.795 92.666)" fill="#17995d"/>
        <path id="Path_9683" data-name="Path 9683" d="M94.314,131.177H31.12a5.065,5.065,0,1,1,0-10.13H94.314a5.065,5.065,0,1,1,0,10.13" transform="translate(21.924 101.86)" fill="#17995d"/>
        <path id="Path_9684" data-name="Path 9684" d="M94.444,131.591H31.25a5.35,5.35,0,0,1,0-10.7H94.444a5.35,5.35,0,0,1,0,10.7M31.25,121.461a4.78,4.78,0,1,0,0,9.561H94.444a4.78,4.78,0,1,0,0-9.561Z" transform="translate(21.795 101.73)" fill="#17995d"/>
        <path id="Path_9685" data-name="Path 9685" d="M94.314,125.791H31.12a5.065,5.065,0,1,1,0-10.13H94.314a5.065,5.065,0,1,1,0,10.13" transform="translate(21.924 97.328)" fill="#17995d"/>
        <path id="Path_9686" data-name="Path 9686" d="M94.444,126.205H31.25a5.35,5.35,0,0,1,0-10.7H94.444a5.35,5.35,0,0,1,0,10.7M31.25,116.075a4.781,4.781,0,1,0,0,9.561H94.444a4.781,4.781,0,1,0,0-9.561Z" transform="translate(21.795 97.198)" fill="#17995d"/>
        <path id="Path_9687" data-name="Path 9687" d="M94.314,136.562H31.12a5.065,5.065,0,1,1,0-10.13H94.314a5.065,5.065,0,1,1,0,10.13" transform="translate(21.924 106.392)" fill="#17995d"/>
        <path id="Path_9688" data-name="Path 9688" d="M94.444,136.977H31.25a5.35,5.35,0,1,1,0-10.7H94.444a5.35,5.35,0,1,1,0,10.7M31.25,126.847a4.781,4.781,0,0,0,0,9.561H94.444a4.781,4.781,0,0,0,0-9.561Z" transform="translate(21.795 106.262)" fill="#17995d"/>
        <path id="Path_9689" data-name="Path 9689" d="M94.314,141.948H31.12a5.065,5.065,0,1,1,0-10.13H94.314a5.065,5.065,0,1,1,0,10.13" transform="translate(21.924 110.924)" fill="#17995d"/>
        <path id="Path_9690" data-name="Path 9690" d="M94.444,142.362H31.25a5.35,5.35,0,0,1,0-10.7H94.444a5.35,5.35,0,0,1,0,10.7M31.25,132.232a4.781,4.781,0,0,0,0,9.561H94.444a4.781,4.781,0,0,0,0-9.561Z" transform="translate(21.795 110.794)" fill="#17995d"/>
        <path id="Path_9691" data-name="Path 9691" d="M94.314,147.334H31.12a5.065,5.065,0,1,1,0-10.13H94.314a5.065,5.065,0,1,1,0,10.13" transform="translate(21.924 115.456)" fill="#17995d"/>
        <path id="Path_9692" data-name="Path 9692" d="M94.444,147.748H31.25a5.35,5.35,0,0,1,0-10.7H94.444a5.35,5.35,0,0,1,0,10.7M31.25,137.618a4.781,4.781,0,1,0,0,9.561H94.444a4.781,4.781,0,1,0,0-9.561Z" transform="translate(21.795 115.326)" fill="#17995d"/>
        <g id="Group_111881" data-name="Group 111881" transform="translate(49.678 204.681)" style="mix-blend-mode: screen;isolation: isolate">
          <g id="Group_111880" data-name="Group 111880">
            <g id="Group_111879" data-name="Group 111879" clip-path="url(#clip-path-8)">
              <path id="Path_9693" data-name="Path 9693" d="M54.029,116.808H28.984c-1.1,0-2.007-1.272-2.007-2.829s.9-2.83,2.007-2.83H54.029c1.1,0,2.007,1.272,2.007,2.83s-.9,2.829-2.007,2.829" transform="translate(-26.977 -111.15)" fill="#154d33"/>
            </g>
          </g>
        </g>
        <g id="Group_111884" data-name="Group 111884" transform="translate(49.678 215.225)" style="mix-blend-mode: screen;isolation: isolate">
          <g id="Group_111883" data-name="Group 111883">
            <g id="Group_111882" data-name="Group 111882" clip-path="url(#clip-path-8)">
              <path id="Path_9694" data-name="Path 9694" d="M54.029,122.534H28.984c-1.1,0-2.007-1.272-2.007-2.829s.9-2.83,2.007-2.83H54.029c1.1,0,2.007,1.274,2.007,2.83s-.9,2.829-2.007,2.829" transform="translate(-26.977 -116.875)" fill="#154d33"/>
            </g>
          </g>
        </g>
        <g id="Group_111887" data-name="Group 111887" transform="translate(49.678 225.142)" style="mix-blend-mode: screen;isolation: isolate">
          <g id="Group_111886" data-name="Group 111886">
            <g id="Group_111885" data-name="Group 111885" clip-path="url(#clip-path-8)">
              <path id="Path_9695" data-name="Path 9695" d="M54.029,127.919H28.984c-1.1,0-2.007-1.272-2.007-2.829s.9-2.83,2.007-2.83H54.029c1.1,0,2.007,1.274,2.007,2.83s-.9,2.829-2.007,2.829" transform="translate(-26.977 -122.261)" fill="#154d33"/>
            </g>
          </g>
        </g>
        <g id="Group_111890" data-name="Group 111890" transform="translate(49.678 235.06)" style="mix-blend-mode: screen;isolation: isolate">
          <g id="Group_111889" data-name="Group 111889">
            <g id="Group_111888" data-name="Group 111888" clip-path="url(#clip-path-8)">
              <path id="Path_9696" data-name="Path 9696" d="M54.029,133.3H28.984c-1.1,0-2.007-1.272-2.007-2.829s.9-2.83,2.007-2.83H54.029c1.1,0,2.007,1.272,2.007,2.83s-.9,2.829-2.007,2.829" transform="translate(-26.977 -127.647)" fill="#154d33"/>
            </g>
          </g>
        </g>
        <g id="Group_111893" data-name="Group 111893" transform="translate(49.678 244.63)" style="mix-blend-mode: screen;isolation: isolate">
          <g id="Group_111892" data-name="Group 111892">
            <g id="Group_111891" data-name="Group 111891" clip-path="url(#clip-path-8)">
              <path id="Path_9697" data-name="Path 9697" d="M54.029,138.5H28.984c-1.1,0-2.007-1.272-2.007-2.829s.9-2.83,2.007-2.83H54.029c1.1,0,2.007,1.272,2.007,2.83s-.9,2.829-2.007,2.829" transform="translate(-26.977 -132.844)" fill="#154d33"/>
            </g>
          </g>
        </g>
        <g id="Group_111896" data-name="Group 111896" transform="translate(49.678 254.895)" style="mix-blend-mode: screen;isolation: isolate">
          <g id="Group_111895" data-name="Group 111895">
            <g id="Group_111894" data-name="Group 111894" clip-path="url(#clip-path-8)">
              <path id="Path_9698" data-name="Path 9698" d="M54.029,144.076H28.984c-1.1,0-2.007-1.272-2.007-2.829s.9-2.83,2.007-2.83H54.029c1.1,0,2.007,1.274,2.007,2.83s-.9,2.829-2.007,2.829" transform="translate(-26.977 -138.418)" fill="#154d33"/>
            </g>
          </g>
        </g>
      </g>
    </g>
  </g>
</svg>
