<svg xmlns="http://www.w3.org/2000/svg" width="260.874" height="260.418" viewBox="0 0 260.874 260.418">
  <g id="meticulous-watch" transform="translate(15934.842 17717.51)">
    <path id="Path_9713" data-name="Path 9713" d="M51.076,61.86A122.816,122.816,0,0,1,178.5,38.073c5.2-.983,10.4-1.964,15.544-2.943A132,132,0,0,0,40.582,59.362c-1.776,1.779-3.487,3.587-5.137,5.443,5.148-.973,10.382-1.958,15.631-2.945" transform="translate(-15902.901 -17698.885)" fill="#8a85bf"/>
    <path id="Path_9714" data-name="Path 9714" d="M33.721,118.748v0l-9.167,1.89q2.224,4.68,4.835,9.22l9.418-1.89q-2.758-4.526-5.086-9.219" transform="translate(-15912.716 -17610.504)" fill="#8a85bf"/>
    <path id="Path_9715" data-name="Path 9715" d="M63.844,53.791a113.373,113.373,0,0,1,87.022-16.207q10.155-1.9,20.224-3.8A122.815,122.815,0,0,0,43.669,57.569h0q10-1.876,20.177-3.778" transform="translate(-15895.492 -17694.596)" fill="#5062a9"/>
    <path id="Path_9716" data-name="Path 9716" d="M29.375,119.689l0,0q2.327,4.694,5.086,9.22l9.973-2q-2.94-4.506-5.42-9.211Z" transform="translate(-15908.371 -17611.447)" fill="#5062a9"/>
    <path id="Path_9717" data-name="Path 9717" d="M27.684,100.254c-2.975.587-5.977,1.179-8.9,1.76A131.524,131.524,0,0,0,29.754,137.3l9.167-1.892a122.142,122.142,0,0,1-11.238-35.154" transform="translate(-15917.916 -17627.168)" fill="#8a85bf"/>
    <path id="Path_9718" data-name="Path 9718" d="M58.583,46.237c1.336-1.34,2.7-2.646,4.084-3.9-5.249.987-10.483,1.971-15.631,2.947a131.018,131.018,0,0,0-24.45,39.882l10.72-2.173A122.407,122.407,0,0,1,58.583,46.237" transform="translate(-15914.489 -17679.361)" fill="#8a85bf"/>
    <path id="Path_9719" data-name="Path 9719" d="M149.917,55.926l10.722-2.173c-.464-.475-.933-.956-1.4-1.426a131.715,131.715,0,0,0-33-24.053c-5.148.979-10.346,1.96-15.546,2.943l.015,0a122.126,122.126,0,0,1,39.211,24.705" transform="translate(-15835.095 -17692.031)" fill="#8a85bf"/>
    <path id="Path_9720" data-name="Path 9720" d="M36.515,123.6l-9.418,1.89A129.236,129.236,0,0,0,34.783,137.3l9.9-1.913A122.147,122.147,0,0,1,36.515,123.6Z" transform="translate(-15910.424 -17606.133)" fill="#8a85bf"/>
    <path id="Path_9721" data-name="Path 9721" d="M137.662,48.41v1.35c-.285-.38-.608-.779-.932-1.16Z" transform="translate(-15811.63 -17673.887)" fill="#8a85bf"/>
    <path id="Path_9722" data-name="Path 9722" d="M44.341,134.292a112.668,112.668,0,0,1-11.544-35c-3.143.616-6.243,1.228-9.333,1.838A122.08,122.08,0,0,0,34.7,136.28Z" transform="translate(-15913.696 -17628.037)" fill="#5062a9"/>
    <path id="Path_9723" data-name="Path 9723" d="M42.025,122.544l-9.973,2v0a121.762,121.762,0,0,0,8.169,11.791l10.635-2.053a113.222,113.222,0,0,1-8.831-11.739" transform="translate(-15905.959 -17607.082)" fill="#5062a9"/>
    <path id="Path_9724" data-name="Path 9724" d="M142.771,49.67V64.156l-.913.171c-.323-.494-.665-.97-.989-1.445a113.934,113.934,0,0,0-9.81-12.205l9.81-1.977.97-.19c.323.38.646.779.932,1.16" transform="translate(-15816.739 -17673.795)" fill="#5062a9"/>
    <path id="Path_9725" data-name="Path 9725" d="M30.27,77.424a120.276,120.276,0,0,1,5.137-13.7v0l-10.72,2.173a129.865,129.865,0,0,0-4.433,13.557L30.268,77.43l0-.006" transform="translate(-15916.591 -17660.09)" fill="#8a85bf"/>
    <path id="Path_9726" data-name="Path 9726" d="M18.542,113.34q.4,4.021,1.053,8.023c2.924-.582,5.926-1.173,8.9-1.76l0-.008a123.138,123.138,0,0,1,.31-40.81l-9.473,1.838c-.386,2.58-.683,5.171-.914,7.768-.291,3.249-.473,6.508-.519,9.768a131.524,131.524,0,0,0,.644,15.181" transform="translate(-15918.729 -17646.514)" fill="#8a85bf"/>
    <path id="Path_9727" data-name="Path 9727" d="M36.262,76.386a112.7,112.7,0,0,1,6.08-13.912L30.658,64.843a120.408,120.408,0,0,0-5.137,13.7v.006Z" transform="translate(-15911.844 -17661.213)" fill="#5062a9"/>
    <path id="Path_9728" data-name="Path 9728" d="M33.534,118.689c-.131-.838-.253-1.675-.365-2.515a113.831,113.831,0,0,1,1.407-38.418L24.509,79.71a123.138,123.138,0,0,0-.31,40.81l0,.008c3.091-.61,6.19-1.222,9.333-1.838" transform="translate(-15914.433 -17647.441)" fill="#5062a9"/>
    <path id="Path_9729" data-name="Path 9729" d="M31.718,70.931,21.7,72.95A130.623,130.623,0,0,0,18.644,87.7l9.473-1.84a121.693,121.693,0,0,1,3.6-14.93" transform="translate(-15918.041 -17653.592)" fill="#8a85bf"/>
    <path id="Path_9730" data-name="Path 9730" d="M100.054,33.624A112.567,112.567,0,0,1,147.816,56.9L159.5,54.531a122.126,122.126,0,0,0-39.211-24.705l-.013,0q-10.072,1.9-20.224,3.8" transform="translate(-15844.68 -17690.637)" fill="#5062a9"/>
    <path id="Path_9731" data-name="Path 9731" d="M33.692,84.935a113.274,113.274,0,0,1,4.278-15.143L27.228,71.957a121.719,121.719,0,0,0-3.6,14.932Z" transform="translate(-15913.551 -17654.617)" fill="#5062a9"/>
    <path id="Path_9732" data-name="Path 9732" d="M97.181,91.609c0,.209-.019.418-.038.608-.038.285-.1.551-.152.837-.057.171-.1.323-.152.494a5.775,5.775,0,0,1-.361.855,7.091,7.091,0,0,1-1.293,1.825,6.9,6.9,0,0,1-9.468.247l-.266-.247-.3-.323a4.55,4.55,0,0,1-.4-.494,4.366,4.366,0,0,1-.4-.627,3.733,3.733,0,0,1-.247-.475A6.915,6.915,0,0,1,83.55,92.6l.817.019a2.658,2.658,0,0,0,.171.323,4.188,4.188,0,0,0,.4.608,4.868,4.868,0,0,0,.38.494l.323.323.266.266a6.855,6.855,0,0,0,9.449-.266,6.951,6.951,0,0,0,1.312-1.806,8.024,8.024,0,0,0,.342-.855,3.468,3.468,0,0,0,.133-.475,2.577,2.577,0,0,1,.038.38" transform="translate(-15859.552 -17635.301)" fill="#cfc4e2"/>
    <path id="Path_9733" data-name="Path 9733" d="M122.989,63.732l-5.494,5.741,1.616-.608-5.4,13-12.643,30.437-6.255,15.057a.019.019,0,0,0,.019.019l.076.076c.171.19.342.38.494.57a8.366,8.366,0,0,1,.494.741,5.232,5.232,0,0,1,.38.722c.114.285.209.551.3.837l.114.437a7.608,7.608,0,0,1,.152,1.73c-.019.209-.019.418-.057.627l-.057.342v.019a7.351,7.351,0,0,1-.856,1.046,6.874,6.874,0,0,1-9.449.266l-.285-.266-.3-.323c-.133-.152-.266-.323-.4-.494-.133-.19-.266-.4-.4-.608-.076-.171-.171-.323-.247-.494a6.357,6.357,0,0,1-.57-1.825l-.057-.418c-.019-.266-.038-.532-.038-.8.019-.3.038-.608.076-.913l.038-.19a7.623,7.623,0,0,1,.589-.779l.266-.285a6.9,6.9,0,0,1,7.509-1.483l3.859-9.278,14.62-35.209,5.684-13.669-3.08-7.224,9.81-11.1,5-5.646Z" transform="translate(-15859.029 -17678.051)" fill="#8a85bf"/>
    <path id="Path_9734" data-name="Path 9734" d="M119.259,94.518l-.817-.019-41.73-1.179-9.068-.266L63.119,97.6,44.83,90.83l17.7-1.711,6.407,2.643-1.2-1.293,9.62.285,41.1,1.16h.076v.19l.057.418a7.964,7.964,0,0,0,.57,1.844,1.061,1.061,0,0,1,.1.152" transform="translate(-15894.444 -17637.201)" fill="#8a85bf"/>
    <path id="Path_9735" data-name="Path 9735" d="M97.225,93.348l-.1.456c0,.019,0,.038-.019.038a3.468,3.468,0,0,1-.133.475,8.024,8.024,0,0,1-.342.856,6.95,6.95,0,0,1-1.312,1.806,6.855,6.855,0,0,1-9.449.266l-.266-.266-.323-.323a4.864,4.864,0,0,1-.38-.494,4.187,4.187,0,0,1-.4-.608,2.656,2.656,0,0,1-.171-.323,1.062,1.062,0,0,0-.1-.152,7.964,7.964,0,0,1-.57-1.844l-.057-.418v-.19c0-.1-.019-.171-.019-.266a2.058,2.058,0,0,1,0-.342,7.347,7.347,0,0,1,.057-.913,5.721,5.721,0,0,1,.171-.779,5.044,5.044,0,0,1,.228-.7,7.641,7.641,0,0,1,.646-1.236l.038-.057-.038.19c-.038.3-.057.608-.076.913,0,.266.019.532.038.8l.057.418a6.357,6.357,0,0,0,.57,1.825c.076.171.171.323.247.494.133.209.266.418.4.608.133.171.266.342.4.494l.3.323.285.266a6.874,6.874,0,0,0,9.449-.266,7.352,7.352,0,0,0,.856-1.046" transform="translate(-15859.52 -17637.914)" fill="#5062a9"/>
    <path id="Path_9736" data-name="Path 9736" d="M64.362,184.866h-39.9l-1.9-1.9h-.019L9.306,169.752,4.99,165.437l25.038-81.6c-.285,3.251-.475,6.5-.513,9.772a130.642,130.642,0,0,0,.646,15.171c.266,2.681.608,5.361,1.046,8.023a131.651,131.651,0,0,0,10.97,35.285q2.224,4.677,4.848,9.22A129.411,129.411,0,0,0,54.7,173.136q3.508,4.819,7.528,9.392c.133.152.266.3.4.437.551.646,1.122,1.274,1.73,1.9" transform="translate(-15930.345 -17641.959)" fill="#787bb9"/>
    <path id="Path_9737" data-name="Path 9737" d="M53.516,143.45H40.8c-.608-.627-1.179-1.255-1.73-1.9-.133-.133-.266-.285-.4-.437q-4.021-4.563-7.528-9.392l9.9-1.92c2.49,3.175,5.171,6.255,8,9.24.665.684,1.331,1.35,2,2.015.171.171.342.342.513.494.646.646,1.293,1.274,1.958,1.9" transform="translate(-15906.78 -17600.543)" fill="#8a85bf"/>
    <path id="Path_9739" data-name="Path 9739" d="M142.528,42.193V54.475l-.932.19c-.323-.38-.627-.76-.97-1.122-.494-.589-1.008-1.179-1.54-1.749q-2.338-2.624-4.848-5.133c-.951-.951-1.939-1.9-2.909-2.814l9.3-1.882,1.407-.285c.171.171.323.342.494.513" transform="translate(-15816.496 -17679.951)" fill="#8a85bf"/>
    <path id="Path_9740" data-name="Path 9740" d="M63.346,144.423H48.821c-.665-.627-1.312-1.255-1.958-1.9-.171-.152-.342-.323-.513-.494-.665-.665-1.331-1.331-2-2.015-2.833-2.985-5.513-6.065-8-9.24l10.627-2.053c1.939,2.262,3.935,4.468,6.065,6.6,2.567,2.548,5.209,4.962,7.947,7.205.779.665,1.559,1.293,2.357,1.9" transform="translate(-15902.086 -17601.516)" fill="#5062a9"/>
    <path id="Path_9741" data-name="Path 9741" d="M143.508,124.76a38.071,38.071,0,0,1-16.578,18.422c1.6-1.426,3.175-2.909,4.715-4.449a115.128,115.128,0,0,0,11.863-13.973" transform="translate(-15820.461 -17605.084)" fill="#5062a9"/>
    <path id="Path_9742" data-name="Path 9742" d="M136.37,55.8l10.764-2.171q-3.462-4.118-7.352-8c-.956-.956-1.932-1.9-2.916-2.812l0,0-11.688,2.369c2.715,2.247,5.359,4.622,7.9,7.16,1.133,1.131,2.219,2.291,3.293,3.456" transform="translate(-15822.041 -17678.924)" fill="#5062a9"/>
    <path id="Path_9743" data-name="Path 9743" d="M137.653,56.74v1.578c-.285-.475-.608-.951-.913-1.407Z" transform="translate(-15811.621 -17666.379)" fill="#5062a9"/>
    <path id="Path_9744" data-name="Path 9744" d="M39.906,82.412A113.9,113.9,0,0,1,77.76,40.348q-10.186,1.9-20.177,3.778c-1.386,1.257-2.745,2.563-4.082,3.9A122.407,122.407,0,0,0,28.224,84.781Z" transform="translate(-15909.408 -17681.15)" fill="#5062a9"/>
    <path id="Path_9745" data-name="Path 9745" d="M230.025,93.028c-.209-.494-.4-.97-.608-1.464-.228-.551-.475-1.084-.722-1.635-.323-.7-.627-1.407-.97-2.11-.342-.741-.7-1.483-1.065-2.205q-3.137-3.707-6.635-7.224-2.652-2.652-5.418-5.076c-1.844-1.635-3.726-3.175-5.646-4.658a114.657,114.657,0,0,0-11.939-8.1c-1.483,2.662-2.985,5.323-4.468,7.966q3.992-2.224,7.947-4.487A.376.376,0,0,1,200.71,64a.655.655,0,0,1,.171.019,2.306,2.306,0,0,1,.266.1l.228.171a.389.389,0,0,1,.152.152c.114.171.133.323-.038.418q-5.019,2.823-10.038,5.665L185.8,80.557a.145.145,0,0,1-.1.038.256.256,0,0,1-.152-.038.307.307,0,0,1-.19-.076.643.643,0,0,1-.228-.114,1.279,1.279,0,0,1-.209-.133.827.827,0,0,1-.133-.114c-.1-.1-.133-.152-.114-.209q2.31-4.106,4.582-8.175c-2.643,1.5-5.3,2.985-7.947,4.487-.456.247-1.464-.532-.97-.817q5.019-2.823,10.038-5.665c1.825-3.289,3.669-6.54,5.513-9.81-1.787-1.027-3.612-2.015-5.456-2.947q-4.135-2.082-8.384-3.821c-1.9-.76-3.8-1.483-5.722-2.148-.951-.342-1.92-.665-2.89-.97l-1.312,15.323-7.49,2.795-5.4,13L146.6,111.6l-6.255,15.057a.019.019,0,0,0,.019.019l.076.076c.171.19.342.38.494.57a8.368,8.368,0,0,1,.494.741,5.233,5.233,0,0,1,.38.722c.114.285.209.551.3.837l.114.437a7.608,7.608,0,0,1,.152,1.73c-.019.209-.019.418-.057.627l-.057.342v.019l-.1.456c0,.019,0,.038-.019.038a2.576,2.576,0,0,1,.038.38c0,.209-.019.418-.038.608-.038.285-.1.551-.152.837-.057.171-.1.323-.152.494a5.775,5.775,0,0,1-.361.855,7.091,7.091,0,0,1-1.293,1.825,6.9,6.9,0,0,1-9.468.247l-.266-.247-.3-.323a4.554,4.554,0,0,1-.4-.494,4.366,4.366,0,0,1-.4-.627,3.732,3.732,0,0,1-.247-.475,6.916,6.916,0,0,1-.551-1.711l-41.73-1.179-9.068-.266-4.525,4.544L54.95,130.975,73.3,125.633l4.563,4.981,9.62.266v.019l41.1,1.16c.019-.1.038-.171.057-.266a2.058,2.058,0,0,1,0-.342,7.35,7.35,0,0,1,.057-.913,5.721,5.721,0,0,1,.171-.779,5.044,5.044,0,0,1,.228-.7,7.64,7.64,0,0,1,.646-1.236l.038-.057a7.625,7.625,0,0,1,.589-.779l.266-.285a6.9,6.9,0,0,1,7.509-1.483L142,115.937l14.62-35.209,5.684-13.669-3.08-7.224,9.81-11.1A115.963,115.963,0,0,0,74.646,63.523c.114.228.228.437.361.665,1.407,2.509,2.833,5.019,4.24,7.528q4.99,2.795,10.019,5.608c.741.418-.19,2.053-.951,1.635-.837-.456-1.673-.932-2.51-1.407-1.578-.894-3.175-1.787-4.772-2.681,1.312,2.338,2.624,4.658,3.916,6.977.38.665-.76,2.129-1.16,1.426l-1.407-2.49q-2.139-3.764-4.24-7.528c-3.213-1.806-6.407-3.593-9.62-5.4-.418.323-.836.665-1.255.989L82.63,84.169c.437.456-.589,2-1.16,1.445L65.805,69.968a122.638,122.638,0,0,0-9.582,8.574,116.729,116.729,0,0,0-19.03,25.152A100.878,100.878,0,0,0,34.57,144.34a102.743,102.743,0,0,0,48.859,74.011c1.1.665,2.205,1.293,3.308,1.9h98.5c1.122-.608,2.224-1.236,3.308-1.9a101.685,101.685,0,0,0,40.152-45.418c.665-1.5,1.312-3.023,1.9-4.544v-73.9c-.19-.494-.38-.97-.57-1.464M86.433,183.2q-6.987,8.926-13.992,17.871c-.19.228-1.255-.475-1.122-.646q5.475-7.015,10.97-14.011-6.9,5.333-13.8,10.684c-.285.209-1.217-.57-1.122-.646q8.983-6.958,17.947-13.9c.228-.171,1.274.456,1.122.646M206.869,70.215q-7.871,7.9-15.76,15.779c-.323.342-1.388-.38-.97-.8q7.871-7.9,15.741-15.779c.342-.342,1.388.38.989.8M187.516,82.553q7.871-7.9,15.741-15.779c.418-.4,1.445.361.97.836q-7.871,7.9-15.741,15.779c-.418.4-1.426-.361-.97-.836M198.5,199.492l-1.882-1.882-4.848-4.848q-4.106-4.078-8.213-8.194c-.437-.418.608-1.958,1.141-1.426.627.627,1.255,1.236,1.882,1.863,2.148,2.129,4.278,4.278,6.407,6.407v-.019q3.337,3.336,6.673,6.654v.019c.418.418-.627,1.958-1.16,1.426m2.3-2.3-1.882-1.882c-1.654-1.654-3.327-3.327-5-4.981l-8.061-8.061c-.437-.418.608-1.977,1.141-1.445l1.882,1.882q3.108,3.108,6.217,6.2,3.422,3.422,6.863,6.844c.418.437-.627,1.977-1.16,1.445m2.319-2.319-1.882-1.882c-1.749-1.73-3.5-3.479-5.247-5.228-2.6-2.6-5.228-5.209-7.833-7.814-.418-.418.627-1.958,1.16-1.426.627.608,1.255,1.236,1.882,1.863,1.958,1.977,3.935,3.935,5.893,5.894q3.593,3.593,7.167,7.148v.019c.437.418-.608,1.958-1.141,1.426" transform="translate(-15904.563 -17677.346)" fill="#f8e7f3"/>
    <path id="Path_9746" data-name="Path 9746" d="M70.432,117.809q-6.987,8.926-13.992,17.871c-.19.228-1.255-.475-1.122-.646q5.475-7.015,10.97-14.011-6.9,5.333-13.8,10.684c-.285.209-1.217-.57-1.122-.646q8.983-6.958,17.947-13.9c.228-.171,1.274.456,1.122.646" transform="translate(-15888.563 -17611.957)" fill="#f8e7f3"/>
    <path id="Path_9747" data-name="Path 9747" d="M235.956,82.026v18.555c-.171-.4-.361-.8-.551-1.2-.247-.551-.513-1.1-.779-1.635-.057-.114-.114-.209-.171-.323-.133-.266-.266-.551-.4-.817-.57-1.1-1.141-2.205-1.768-3.289a4.948,4.948,0,0,0-.285-.532c-.608-1.1-1.255-2.205-1.92-3.289-.551-.932-1.141-1.825-1.73-2.738-.076-.133-.171-.285-.266-.418-.133-.19-.266-.4-.418-.589-.646-.989-1.331-1.977-2.034-2.947-.038-.057-.076-.1-.114-.152-.76-1.065-1.54-2.11-2.376-3.156-.8-1.046-1.654-2.091-2.529-3.1-.19-.228-.38-.437-.57-.665-.4-.475-.817-.932-1.217-1.388-.418-.475-.856-.951-1.274-1.407-.951-1.027-1.939-2.053-2.947-3.061C173.656,29,107.459,28.908,66.755,69.669a103.545,103.545,0,0,0-28.9,56.121,115.717,115.717,0,0,0-9.2,33.023,113.852,113.852,0,0,1,1.407-38.4,111.534,111.534,0,0,1,4.278-15.152,113.253,113.253,0,0,1,130.95-72.186,112.534,112.534,0,0,1,47.775,23.289c2.7,2.243,5.342,4.62,7.89,7.148,1.141,1.141,2.224,2.3,3.289,3.46a113.93,113.93,0,0,1,9.81,12.205c.323.475.665.951.989,1.445.3.456.627.932.913,1.407" transform="translate(-15909.925 -17690.088)" fill="#d0bedf"/>
    <path id="Path_9748" data-name="Path 9748" d="M224.957,92.995q-3.137-3.707-6.635-7.224-2.652-2.652-5.418-5.076c-1.844-1.635-3.726-3.175-5.646-4.658a114.657,114.657,0,0,0-11.939-8.1c.038-.057.076-.133.114-.19.133-.228-.989-.875-1.122-.646a2.078,2.078,0,0,0-.114.209c-1.787-1.027-3.612-2.015-5.456-2.947q-4.135-2.082-8.384-3.821c-1.9-.76-3.8-1.483-5.722-2.148-.951-.342-1.92-.665-2.89-.97l.589-6.958-5,5.646A115.963,115.963,0,0,0,72.942,70.9c-.361-.608-.7-1.217-1.046-1.844-.4-.7-1.559.779-1.179,1.426.266.475.532.932.779,1.407Q69.986,72.919,68.475,74c-.361-.209-.741-.418-1.1-.627-.76-.418-1.711,1.217-.951,1.654a4.027,4.027,0,0,0,.4.209c-.418.323-.836.665-1.255.989-.133-.152-.285-.285-.418-.418-.57-.57-1.6.989-1.141,1.445l.1.1a122.638,122.638,0,0,0-9.582,8.574,116.729,116.729,0,0,0-19.03,25.152,101.341,101.341,0,0,1,98.022-74.7c1.046,0,2.11.019,3.156.057,1.388.038,2.795.114,4.183.209q1.825.143,3.65.342t3.65.456c1.616.247,3.232.513,4.848.837,1.6.3,3.213.665,4.791,1.046,1.6.4,3.194.817,4.772,1.293.8.228,1.578.475,2.357.741a1.868,1.868,0,0,1,.3.1q.913.285,1.825.627c1.711.57,3.384,1.217,5.057,1.9.684.266,1.35.551,2.015.856.8.323,1.578.684,2.357,1.046q4.534,2.11,8.9,4.677c1.445.856,2.89,1.768,4.3,2.7a102.714,102.714,0,0,1,35.285,39.734" transform="translate(-15902.86 -17684.727)" fill="#ddc4d6"/>
    <path id="Path_9749" data-name="Path 9749" d="M12.433,140.053H0l1.73-1.9,4.2-4.582,4.582,4.582h.019Z" transform="translate(-15934.842 -17597.145)" fill="#9a96c9"/>
    <path id="Path_9750" data-name="Path 9750" d="M26.143,144.144H9.622l-1.9-1.9H7.7L3.12,137.661l7.871-8.631,13.232,13.213h.019Z" transform="translate(-15932.03 -17601.236)" fill="#5062a9"/>
    <path id="Path_9751" data-name="Path 9751" d="M128.89,8.507l-2.62,2.384,0,.006L128.9,8.513l-.006-.006" transform="translate(-15821.056 -17709.844)" fill="#9a96c9"/>
    <path id="Path_9752" data-name="Path 9752" d="M147.087,18.338V34.1l-1.9-1.9L126.27,13.319l2.6-2.376L134.54,5.81l10.646,10.627Z" transform="translate(-15821.056 -17712.273)" fill="#5062a9"/>
    <path id="Path_9754" data-name="Path 9754" d="M143.167,5.665V23.574l-1.9-1.9L130.62,11.046l10.418-9.487L142.749,0a39.74,39.74,0,0,1,.418,5.665" transform="translate(-15817.136 -17717.51)" fill="#787bb9"/>
    <path id="Path_9755" data-name="Path 9755" d="M188.495,32.567V72.985c-.171-.171-.323-.342-.494-.513-.456-.494-.932-.97-1.388-1.426l-.019-.019a133.073,133.073,0,0,0-17.852-14.943A129.879,129.879,0,0,0,153.59,47a.019.019,0,0,1-.019-.019c-2.338-1.2-4.715-2.319-7.11-3.384-1.217-.513-2.414-1.027-3.631-1.521-2.414-.97-4.867-1.882-7.338-2.719h-.019c-2.452-.817-4.943-1.578-7.452-2.262H128c-2.509-.684-5.019-1.274-7.567-1.806a132.825,132.825,0,0,0-40.114-2.11L163.381,7.51l4.3,4.278,18.916,18.878Z" transform="translate(-15862.463 -17710.742)" fill="#787bb9"/>
    <path id="Path_9757" data-name="Path 9757" d="M84.629,170.962H68.888c-.8-.608-1.578-1.236-2.357-1.9-2.738-2.243-5.38-4.658-7.947-7.205-2.129-2.129-4.125-4.335-6.065-6.6A112.768,112.768,0,0,1,43.7,143.509c-1.958-3-3.783-6.065-5.418-9.2a112.538,112.538,0,0,1-8.08-19.715A117.712,117.712,0,0,1,35.675,99.27a105.458,105.458,0,0,0,45.95,69.791c.989.665,2,1.293,3,1.9" transform="translate(-15907.628 -17628.055)" fill="#f8e7f3"/>
    <path id="Path_9758" data-name="Path 9758" d="M156.279,113.18v45.247H116.07c1.027-.608,2.034-1.255,3.042-1.92a105.673,105.673,0,0,0,16.312-13.346,103.594,103.594,0,0,0,18.954-26.046c.665-1.293,1.293-2.6,1.9-3.935" transform="translate(-15830.247 -17615.52)" fill="#f8e7f3"/>
    <path id="Path_9759" data-name="Path 9759" d="M121.556,54.046c-1.787-1.027-3.612-2.015-5.456-2.947,1.844.932,3.669,1.9,5.456,2.947" transform="translate(-15830.22 -17671.463)" fill="#f8e7f3"/>
    <path id="Path_9760" data-name="Path 9760" d="M131.326,57.139q-7.871,7.9-15.741,15.779c-.418.4-1.426-.361-.97-.836q7.871-7.9,15.741-15.779c.418-.4,1.445.361.97.837" transform="translate(-15831.663 -17666.875)" fill="#f8e7f3"/>
    <path id="Path_9761" data-name="Path 9761" d="M132.715,58.48q-7.871,7.9-15.76,15.779c-.323.342-1.388-.38-.97-.8q7.871-7.9,15.741-15.779c.342-.342,1.388.38.989.8" transform="translate(-15830.41 -17665.611)" fill="#f8e7f3"/>
    <path id="Path_9762" data-name="Path 9762" d="M37.385,80.588a115.633,115.633,0,0,0-9.2,33.034q.168,1.258.365,2.515a113.253,113.253,0,0,0,3.481,15.281A115.568,115.568,0,0,1,37.5,116.1a105.124,105.124,0,0,1-.11-35.515" transform="translate(-15909.446 -17644.889)" fill="#e4cee6"/>
    <path id="Path_9763" data-name="Path 9763" d="M59.009,60.632q-1.571-2.786-3.141-5.572c-1.015.69-2.029,1.388-3.027,2.114l1.384.776q2.393,1.34,4.783,2.682" transform="translate(-15887.224 -17667.893)" fill="#e4cee6"/>
    <path id="Path_9764" data-name="Path 9764" d="M229.907,181.537a101.685,101.685,0,0,1-40.152,45.418c-1.084.665-2.186,1.293-3.308,1.9H191.6c1.027-.608,2.034-1.255,3.042-1.92a105.673,105.673,0,0,0,16.312-13.346,103.594,103.594,0,0,0,18.954-26.046c.665-1.293,1.293-2.6,1.9-3.935v-6.616c-.589,1.521-1.236,3.042-1.9,4.544m1.35-86.292c-.247-.551-.513-1.1-.779-1.635-.057-.114-.114-.209-.171-.323-.133-.266-.266-.551-.4-.817-.57-1.1-1.141-2.205-1.768-3.289a4.949,4.949,0,0,0-.285-.532c-.608-1.1-1.255-2.205-1.92-3.289-.551-.932-1.141-1.825-1.73-2.738-.076-.133-.171-.285-.266-.418-.133-.19-.266-.4-.418-.589-.665-.989-1.35-1.977-2.034-2.947-.038-.057-.076-.1-.114-.152-.779-1.065-1.559-2.11-2.376-3.156s-1.673-2.072-2.529-3.1c-.19-.228-.38-.437-.57-.665-.4-.475-.817-.932-1.217-1.388-.418-.475-.856-.951-1.274-1.407-.951-1.027-1.939-2.053-2.947-3.061C169.508,24.865,103.31,24.77,62.607,65.53a103.545,103.545,0,0,0-28.9,56.121,105.282,105.282,0,0,0,46.064,105.3c.989.665,2,1.293,3,1.9h5.171c-1.1-.608-2.205-1.236-3.308-1.9a102.743,102.743,0,0,1-48.859-74.011A100.878,100.878,0,0,1,38.405,112.3a101.341,101.341,0,0,1,98.022-74.7c1.046,0,2.11.019,3.156.057,1.388.038,2.795.114,4.182.209q1.825.143,3.65.342t3.65.456c1.616.247,3.232.513,4.848.837,1.6.3,3.213.665,4.791,1.046,1.6.4,3.194.817,4.772,1.293.8.228,1.578.475,2.357.741a1.869,1.869,0,0,1,.3.1q.913.285,1.825.627c1.711.57,3.384,1.217,5.057,1.9.684.266,1.35.551,2.015.856.8.323,1.578.684,2.357,1.046q4.534,2.11,8.9,4.677c1.445.856,2.89,1.749,4.3,2.7a102.714,102.714,0,0,1,35.285,39.734c.361.722.722,1.464,1.065,2.205.342.7.646,1.407.97,2.11.247.551.494,1.084.722,1.635.209.494.4.97.608,1.464.19.494.38.97.57,1.464V96.442c-.171-.4-.361-.8-.551-1.2M209.108,211.765a100.866,100.866,0,0,1-19.354,15.19h4.03c.285,0,.57,0,.855-.019a105.673,105.673,0,0,0,16.312-13.346,103.594,103.594,0,0,0,18.954-26.046v-6.008a101.051,101.051,0,0,1-20.8,30.228" transform="translate(-15905.776 -17685.951)" fill="#54529c"/>
    <path id="Path_9765" data-name="Path 9765" d="M131.994,57.695q-5.019,2.823-10.038,5.665L116.309,73.4a.145.145,0,0,1-.1.038.587.587,0,0,1-.152-.038.307.307,0,0,1-.19-.076,1.278,1.278,0,0,1-.228-.114.785.785,0,0,1-.209-.133.83.83,0,0,1-.133-.114c-.1-.1-.133-.152-.114-.209q2.31-4.106,4.582-8.175c-2.643,1.5-5.3,2.985-7.947,4.487-.456.247-1.464-.532-.97-.817L120.891,62.6v-.019c1.825-3.289,3.669-6.54,5.513-9.81a2.077,2.077,0,0,1,.114-.209c.133-.228,1.255.418,1.122.646-.038.057-.076.133-.114.19-1.483,2.662-2.985,5.323-4.468,7.966,2.662-1.483,5.3-2.985,7.947-4.468a.342.342,0,0,1,.209-.057.655.655,0,0,1,.171.019,2.306,2.306,0,0,1,.266.1l.228.171a.578.578,0,0,1,.152.152c.114.171.133.323-.038.418" transform="translate(-15835.068 -17670.188)" fill="#54529c"/>
    <path id="Path_9766" data-name="Path 9766" d="M131.326,57.139q-7.871,7.9-15.741,15.779c-.418.4-1.426-.361-.97-.836q7.871-7.9,15.741-15.779c.418-.4,1.445.361.97.837" transform="translate(-15831.663 -17666.875)" fill="#54529c"/>
    <path id="Path_9767" data-name="Path 9767" d="M132.715,58.48q-7.871,7.9-15.76,15.779c-.323.342-1.388-.38-.97-.8q7.871-7.9,15.741-15.779c.342-.342,1.388.38.989.8" transform="translate(-15830.41 -17665.611)" fill="#54529c"/>
    <path id="Path_9768" data-name="Path 9768" d="M70.432,117.809q-6.987,8.926-13.992,17.871c-.19.228-1.255-.475-1.122-.646q5.475-7.015,10.97-14.011-6.9,5.333-13.8,10.684c-.285.209-1.217-.57-1.122-.646q8.983-6.958,17.947-13.9c.228-.171,1.274.456,1.122.646" transform="translate(-15888.563 -17611.957)" fill="#54529c"/>
    <path id="Path_9769" data-name="Path 9769" d="M129.908,131.431l-1.882-1.882c-1.749-1.73-3.5-3.479-5.247-5.228-2.6-2.6-5.228-5.209-7.833-7.814-.418-.418.627-1.958,1.16-1.426.627.608,1.255,1.236,1.882,1.863,1.958,1.977,3.935,3.935,5.894,5.894,2.4,2.4,4.791,4.772,7.167,7.167.437.418-.608,1.958-1.141,1.426" transform="translate(-15831.348 -17613.906)" fill="#54529c"/>
    <path id="Path_9770" data-name="Path 9770" d="M128.682,132.66l-1.882-1.882c-1.654-1.654-3.327-3.327-5-4.981l-8.061-8.061c-.437-.418.608-1.977,1.141-1.445l1.882,1.882q3.108,3.108,6.217,6.2,3.422,3.422,6.863,6.844c.418.437-.627,1.977-1.16,1.445" transform="translate(-15832.441 -17612.814)" fill="#54529c"/>
    <path id="Path_9771" data-name="Path 9771" d="M127.472,133.861l-1.882-1.882-4.848-4.848q-4.106-4.078-8.213-8.194c-.437-.418.608-1.958,1.141-1.426.627.627,1.255,1.236,1.882,1.863,2.148,2.129,4.278,4.278,6.407,6.407q3.336,3.308,6.673,6.654c.418.418-.627,1.958-1.16,1.426" transform="translate(-15833.531 -17611.717)" fill="#54529c"/>
    <path id="Path_9772" data-name="Path 9772" d="M112.688,43.789l-.589,6.958L110.786,66.07l-7.49,2.795-1.616.608,5.494-5.741Z" transform="translate(-15843.215 -17678.051)" fill="#5062a9"/>
    <path id="Path_9773" data-name="Path 9773" d="M100.48,59.238l2.158,6.481,10.089-20.912Z" transform="translate(-15844.296 -17677.133)" fill="#b7a7d2"/>
    <path id="Path_9774" data-name="Path 9774" d="M68.936,93.483,62.53,90.84l-17.7,1.711,18.346-5.342,4.563,4.981Z" transform="translate(-15894.444 -17638.924)" fill="#5062a9"/>
    <path id="Path_9775" data-name="Path 9775" d="M45.819,90.145,61.4,95.569l4.428-3.741Z" transform="translate(-15893.553 -17636.277)" fill="#b7a7d2"/>
    <path id="Path_9776" data-name="Path 9776" d="M94.182,91.026a3.507,3.507,0,0,0-.3-1.279,3.453,3.453,0,0,0-.262-.489l-.184-.264a4.352,4.352,0,0,0-.338-.39l-.285-.264a4.784,4.784,0,0,0-.945-.616L91.6,87.6a4.885,4.885,0,0,0-.561-.2,5.5,5.5,0,0,0-.536-.124,5.147,5.147,0,0,0-.6-.07l-.517-.008-.07,0a5.376,5.376,0,0,0-1.428.257,4.147,4.147,0,0,0-3.082,3.979l.017.228a3.521,3.521,0,0,0,.449,1.373l.247.378a3.833,3.833,0,0,0,.31.373,4.128,4.128,0,0,0,.422.392,4.275,4.275,0,0,0,.413.3l.234.141a5.093,5.093,0,0,0,1.186.475l.357.078.494.068.428.023.31-.006.253-.017c2.466-.222,4.352-2.067,4.257-4.219" transform="translate(-15858.424 -17638.926)" fill="#b7a7d2"/>
    <path id="Path_9777" data-name="Path 9777" d="M86.873,91.2l.148.068a3.642,3.642,0,0,0,.755.228l.226.038.314.029.274.01.2-.006.16-.01c1.574-.125,2.789-1.053,2.741-2.12A1.4,1.4,0,0,0,91.5,88.8l-.165-.241-.116-.129-.213-.192-.181-.129a3.2,3.2,0,0,0-.6-.3l-.167-.057-.356-.1-.342-.057-.38-.032-.331,0-.046,0a4.381,4.381,0,0,0-.911.135c-1.192.312-2.029,1.1-1.99,2l.011.112a1.479,1.479,0,0,0,.276.679l.156.186.2.183.266.192Z" transform="translate(-15857.609 -17638.602)" fill="#f8e7f3"/>
  </g>
</svg>
