<svg id="cubes" xmlns="http://www.w3.org/2000/svg" xmlns:xlink="http://www.w3.org/1999/xlink" width="245.136" height="212.665" viewBox="0 0 245.136 212.665">
  <defs>
    <clipPath id="clip-path">
      <rect id="Rectangle_44749" data-name="Rectangle 44749" width="245.135" height="212.665" fill="none"/>
    </clipPath>
  </defs>
  <path id="Path_9339" data-name="Path 9339" d="M91.279,0,0,62.178,3.369,113.2l5.08.579,1.043,16.6L33.317,153.6,15.268,178.306l-2.059,2.808.775,31.107.008.446H201.621v-.446h4.572l-.213.446h.544l.2-.446,18.557-39.066,17.327-4.439,2.522-49.245-3.957-3.128L219.4,99.14l22.5-20.1,1.052-47.712Z" transform="translate(0 0)" fill="#ceb5ff"/>
  <g id="Group_111773" data-name="Group 111773">
    <g id="Group_111772" data-name="Group 111772" clip-path="url(#clip-path)">
      <path id="Path_9340" data-name="Path 9340" d="M110.947,25.755,80.16,18.517a1.8,1.8,0,0,1-.627-3.216L97.5,2.56A6.368,6.368,0,0,1,102.5,1.526L140.12,9.362a1.465,1.465,0,0,1,.526,2.645L124.758,22.794a16.516,16.516,0,0,1-13.811,2.961" transform="translate(-8.562 -0.151)" fill="#644d91"/>
      <path id="Path_9341" data-name="Path 9341" d="M81.5,48.264,46.877,40.688a1.8,1.8,0,0,1-.627-3.216L65.6,24.646a9,9,0,0,1,5.964-1.369l36.273,7.975a1.465,1.465,0,0,1,.525,2.645L92.943,44.844c-3.926,3-6.624,4.551-11.438,3.42" transform="translate(-4.945 -2.519)" fill="#644d91"/>
      <path id="Path_9342" data-name="Path 9342" d="M47.64,72.13,11.687,64.485a1.852,1.852,0,0,1-.635-3.326L31.243,47.765a9.464,9.464,0,0,1,6.208-1.451l37.661,8.048A1.51,1.51,0,0,1,75.64,57.1L59.549,68.522c-4.1,3.132-6.912,4.752-11.909,3.608" transform="translate(-1.115 -5.024)" fill="#644d91"/>
      <path id="Path_9343" data-name="Path 9343" d="M104.934,87.68l-36.7-8.14a1.851,1.851,0,0,1-.635-3.325L87.606,61.637a9.463,9.463,0,0,1,6.207-1.451l39.044,8.057a1.509,1.509,0,0,1,.529,2.737L116.84,84.072c-4.1,3.132-6.909,4.75-11.906,3.608" transform="translate(-7.261 -6.531)" fill="#644d91"/>
      <path id="Path_9344" data-name="Path 9344" d="M169.206,38.044l-31.949-7.789a1.8,1.8,0,0,1-.627-3.215L154.593,14.3a6.368,6.368,0,0,1,5.007-1.034L197.218,21.1a1.466,1.466,0,0,1,.525,2.646L183.016,35.086a16.526,16.526,0,0,1-13.811,2.958" transform="translate(-14.768 -1.427)" fill="#644d91"/>
      <path id="Path_9345" data-name="Path 9345" d="M140.26,62.451l-36.425-8.6a1.8,1.8,0,0,1-.627-3.216L123.1,37.3a6.368,6.368,0,0,1,5.007-1.034l37.844,8.513a1.466,1.466,0,0,1,.525,2.646L150.33,59.189c-3.926,3.005-5.259,4.4-10.07,3.262" transform="translate(-11.136 -3.927)" fill="#644d91"/>
      <path id="Path_9346" data-name="Path 9346" d="M229.174,51.179,195.3,43.67a1.8,1.8,0,0,1-.627-3.216l17.963-13.446a6.368,6.368,0,0,1,5.007-1.034l37.617,7.835c1.267.263,3.675,1.46,1.972,3.246L242.5,48.395a15.412,15.412,0,0,1-13.329,2.784" transform="translate(-21.077 -2.808)" fill="#644d91"/>
      <path id="Path_9347" data-name="Path 9347" d="M198.712,76.223l-35.344-8.582a1.829,1.829,0,0,1-.639-3.274l18.315-13.708a6.488,6.488,0,0,1,5.1-1.056l38.322,7.946c1.289.268,3.744,1.482,2.007,3.3l-14.6,11.773c-4,3.058-8.261,4.744-13.164,3.6" transform="translate(-17.604 -5.376)" fill="#644d91"/>
      <path id="Path_9348" data-name="Path 9348" d="M166.959,103.374l-38.645-8.582a1.829,1.829,0,0,1-.639-3.274L147.6,76.286a9.479,9.479,0,0,1,6.229-1.2l38.5,7.822c1.289.268,3.743,1.482,2.007,3.3L178.884,99.267c-4,3.061-7.023,5.253-11.925,4.106" transform="translate(-13.794 -8.149)" fill="#644d91"/>
      <path id="Path_9349" data-name="Path 9349" d="M263.379,84.517,248.63,98.579a2.046,2.046,0,0,1-3.458-1.481V62.707a13.779,13.779,0,0,1,4.822-10.47l15.768-13.493a.83.83,0,0,1,1.369.631V75.761a12.116,12.116,0,0,1-3.752,8.756" transform="translate(-26.649 -4.189)" fill="#957ec2"/>
      <path id="Path_9350" data-name="Path 9350" d="M234.427,111.2,218.9,125.786a2.158,2.158,0,0,1-3.641-1.538V88.592a14.2,14.2,0,0,1,5.073-10.855l16.6-13.991a.875.875,0,0,1,1.441.652v37.728a12.442,12.442,0,0,1-3.943,9.077" transform="translate(-23.398 -6.906)" fill="#957ec2"/>
      <path id="Path_9351" data-name="Path 9351" d="M202.942,137.346l-16.51,15.248a2.3,2.3,0,0,1-3.874-1.606V113.7a14.751,14.751,0,0,1,5.4-11.353L205.6,87.718a.931.931,0,0,1,1.532.683v39.45a12.9,12.9,0,0,1-4.194,9.5" transform="translate(-19.843 -9.511)" fill="#957ec2"/>
      <path id="Path_9352" data-name="Path 9352" d="M258.741,180.394l-33.934,8.016a3.821,3.821,0,0,1-4.7-3.719v-35.4a7.617,7.617,0,0,1,6.127-7.467l35.126-7a2.951,2.951,0,0,1,3.528,2.895v34.9a7.979,7.979,0,0,1-6.146,7.772" transform="translate(-23.925 -14.649)" fill="#957ec2"/>
      <path id="Path_9353" data-name="Path 9353" d="M135.7,208.206l-35.3,8.015a3.938,3.938,0,0,1-4.888-3.719V177.108a7.7,7.7,0,0,1,6.373-7.467l35.859-8c1.9-.365,4.351,2.03,4.351,3.893v34.9a8.056,8.056,0,0,1-6.4,7.77" transform="translate(-10.382 -17.566)" fill="#957ec2"/>
      <path id="Path_9354" data-name="Path 9354" d="M200.784,149.467l-1.446.276c-5.273,4.867-15.681,14.45-18.175,16.609-3.375,2.925-5.737,1.8-5.737,1.8l-17.543-4.429c0,.071-.009.141-.009.209v35.394a3.939,3.939,0,0,0,4.889,3.719l35.3-8.016a8.055,8.055,0,0,0,6.4-7.772V152.365a3.042,3.042,0,0,0-3.672-2.9" transform="translate(-17.16 -16.24)" fill="#957ec2"/>
      <path id="Path_9355" data-name="Path 9355" d="M69.54,234.867H21.784l-.009-.446L21,208.137a3.763,3.763,0,0,1,4.2-3.85l36.294,4.252c4.982.579,7.237,4.109,7.237,9.127l.793,16.757Z" transform="translate(-2.282 -22.202)" fill="#957ec2"/>
      <path id="Path_9356" data-name="Path 9356" d="M133,236.737H85.461l-.009-.446-.062-10.936,4.519,4.528,38.255-8.423c3.307,1.373,4.777,4.519,4.679,8.663l.152,6.168Z" transform="translate(-9.282 -24.072)" fill="#957ec2"/>
      <path id="Path_9357" data-name="Path 9357" d="M200.015,233.32v3.521H149.46V228.4a5.983,5.983,0,0,1,6.774-5.936L195,227.6a5.776,5.776,0,0,1,5.018,5.722" transform="translate(-16.246 -24.175)" fill="#957ec2"/>
      <path id="Path_9358" data-name="Path 9358" d="M41.685,124.252,6.909,116.934a3.368,3.368,0,0,1-2.666-3.078L1.628,72.725a1.811,1.811,0,0,1,2.153-1.891L37.842,77.5a8.885,8.885,0,0,1,7.18,8.721v35.325a2.768,2.768,0,0,1-3.337,2.71" transform="translate(-0.177 -7.696)" fill="#957ec2"/>
      <path id="Path_9359" data-name="Path 9359" d="M101.961,140.7l-37.423-7.564a3.522,3.522,0,0,1-2.867-3.183L58.859,87.437a1.921,1.921,0,0,1,2.317-1.955L97.827,92.37a9.292,9.292,0,0,1,7.728,9.016V137.9a2.953,2.953,0,0,1-3.595,2.8" transform="translate(-6.397 -9.288)" fill="#957ec2"/>
      <path id="Path_9360" data-name="Path 9360" d="M162.75,154.522l-38.364-9.5a3.5,3.5,0,0,1-2.8-3.229l-.57-41.04a1.952,1.952,0,0,1,2.511-1.742l37.6,8.8c4.6,1.078,7.753,4.9,7.51,9.127l-2.016,35.1a3.02,3.02,0,0,1-3.879,2.474" transform="translate(-13.155 -10.756)" fill="#957ec2"/>
      <path id="Path_9361" data-name="Path 9361" d="M84.623,210.955a1.863,1.863,0,0,1-3.224,1.272L65.655,195.38a11.042,11.042,0,0,1-3.387-7.958V151.365a1.939,1.939,0,0,1,3.283-1.4l14.272,13.7a15.6,15.6,0,0,1,4.8,11.254v36.038Z" transform="translate(-6.768 -16.242)" fill="#957ec2"/>
      <path id="Path_9362" data-name="Path 9362" d="M36.514,134.112v24.157a10.433,10.433,0,0,0,3.016,7.371l14.024,15.6a1.651,1.651,0,0,0,2.87-1.178V146.687a14.825,14.825,0,0,0-2.624-8.441Z" transform="translate(-3.969 -14.577)" fill="#957ec2"/>
      <path id="Path_9363" data-name="Path 9363" d="M10.844,127.973v10.96A10.433,10.433,0,0,0,13.86,146.3l14.024,13.231a1.651,1.651,0,0,0,2.87-1.178V132.734Z" transform="translate(-1.179 -13.91)" fill="#957ec2"/>
      <path id="Path_9364" data-name="Path 9364" d="M221.552,207.879v27.3H208.2V232.4a12.692,12.692,0,0,1,1.587-6.15l10.366-18.726a.746.746,0,0,1,1.4.357" transform="translate(-22.63 -22.515)" fill="#957ec2"/>
      <path id="Path_9365" data-name="Path 9365" d="M237.913,197.44v19.19a7.125,7.125,0,0,1-.651,2.995l-6.48,14.056H226.21V202.262a15.111,15.111,0,0,1,.16-2.112Z" transform="translate(-24.588 -21.461)" fill="#957ec2"/>
      <path id="Path_9366" data-name="Path 9366" d="M240.686,196.844v13.07a1.087,1.087,0,0,0,2.074.586l7.321-15.865Z" transform="translate(-26.161 -21.156)" fill="#957ec2"/>
      <path id="Path_9367" data-name="Path 9367" d="M145.377,216.263l55.47,6.976,13.39-21.492Z" transform="translate(-15.802 -21.929)" fill="#644d91"/>
      <path id="Path_9368" data-name="Path 9368" d="M61.049,140.648l26.214,25.429,42.984-8.1Z" transform="translate(-6.636 -15.288)" fill="#644d91"/>
      <path id="Path_9369" data-name="Path 9369" d="M35.176,172.333l-18.05,24.7,44.211,6.691Z" transform="translate(-1.861 -18.732)" fill="#644d91"/>
      <path id="Path_9370" data-name="Path 9370" d="M242.627,111.234l-28.957,28.18,50.73-10.983Z" transform="translate(-23.225 -12.091)" fill="#644d91"/>
    </g>
  </g>
</svg>
